<?xml version="1.0" encoding="UTF-8"?>
<svg version="1.1" xmlns="http://www.w3.org/2000/svg" width="467" height="454">
<path d="M0 0 C1.03253906 0.37382813 2.06507812 0.74765625 3.12890625 1.1328125 C26.04331178 9.97080799 45.66407341 27.27835452 55.7890625 49.83984375 C64.45550467 70.30767429 66.44954427 91.24234124 61.65625 112.9453125 C60.89497932 115.96811547 60.89497932 115.96811547 61 119 C76.64427026 125.72031926 92.29444816 132.42378371 108 139 C110.67074064 135.77549888 112.93772927 132.54037211 115.0625 128.9375 C118.92900024 122.79075604 123.58985641 117.62412183 128.61669922 112.43457031 C129.91873276 111.08427926 131.19658417 109.71078925 132.47265625 108.3359375 C147.41168766 92.64388174 167.31081817 82.7218295 188 77 C189.20011719 76.6596875 190.40023438 76.319375 191.63671875 75.96875 C223.53000275 68.5212372 257.30646219 75.22797057 285 92 C315.40815103 111.53663529 333.28224753 140.83215349 341.8125 175.28125 C348.02815483 207.39546661 339.87608293 241.57726673 321.7421875 268.44140625 C302.4286408 294.98887994 275.95853267 312.71544904 244 320 C242.95070313 320.24621094 241.90140625 320.49242187 240.8203125 320.74609375 C211.73779999 326.33888462 177.69302921 320.33998064 152.98974609 303.64111328 C151.31290718 302.44625516 149.65456065 301.22552182 148 300 C144.47573355 301.45298704 142.7816993 303.22774917 140.5 306.25 C137.13629168 310.59087499 133.65420396 314.78620459 130.0625 318.9375 C124.93961249 324.87691586 119.89414102 330.86933503 115 337 C114.38253906 337.65742188 113.76507813 338.31484375 113.12890625 338.9921875 C111.69469194 341.00224727 111.69469194 341.00224727 112.63671875 343.49609375 C113.90518814 345.82586131 115.24949741 347.92213497 116.8125 350.0625 C126.84947966 364.78667553 128.70892368 381.17325382 126.5703125 398.4765625 C122.96762728 414.97775038 112.85867443 429.82818132 98.90625 439.25390625 C82.19983427 449.2912286 64.96418077 452.36362646 45.93359375 448.15625 C28.70648736 443.46226258 15.25959321 432.09529032 6 417 C-2.39297138 402.12554548 -4.09494353 385.17469294 -0.1640625 368.6796875 C5.46289115 350.89247161 16.38784647 336.62585632 32.7890625 327.4375 C47.76837061 320.18527014 65.19419064 318.33778549 81.28125 322.9921875 C85.20692639 324.44739513 88.92939512 326.24374116 92.625 328.20703125 C94.91872382 329.20839123 94.91872382 329.20839123 96.98828125 328.5078125 C99.8214607 326.38430324 101.9671694 323.79087234 104.1875 321.0625 C104.67089844 320.47984375 105.15429688 319.8971875 105.65234375 319.296875 C107.109088 317.53728128 108.55594636 315.77001598 110 314 C110.76957031 313.06027344 111.53914062 312.12054688 112.33203125 311.15234375 C113.7770583 309.38446381 115.21847201 307.61362421 116.65625 305.83984375 C118.40328803 303.723016 120.16938052 301.63786709 121.96875 299.56640625 C122.47212891 298.98375 122.97550781 298.40109375 123.49414062 297.80078125 C124.47654034 296.66675305 125.46458701 295.5375851 126.45898438 294.4140625 C129.84306117 290.69312783 129.84306117 290.69312783 131 286 C129.45705454 284.4219876 127.89854362 282.8577471 126.2890625 281.34765625 C112.23238433 266.9311655 103.31063448 248.20236918 98 229 C97.6596875 227.79988281 97.319375 226.59976563 96.96875 225.36328125 C91.61774548 202.44809985 94.4769443 178.30179855 101 156 C100.26557175 155.87142105 99.53114349 155.7428421 98.77445984 155.61036682 C96.1894565 155.04167945 94.02805886 154.28802661 91.60864258 153.23413086 C90.77460403 152.87383286 89.94056549 152.51353485 89.08125305 152.14231873 C88.19463486 151.75375198 87.30801666 151.36518524 86.39453125 150.96484375 C85.47411545 150.56672989 84.55369965 150.16861603 83.60539246 149.75843811 C80.67240697 148.4893948 77.7422282 147.21404331 74.8125 145.9375 C71.8718756 144.65783048 68.93065976 143.37961501 65.98747253 142.10585022 C64.15740366 141.31370987 62.32883437 140.51809453 60.50190735 139.71873474 C59.67732529 139.3615889 58.85274323 139.00444305 58.00317383 138.63647461 C56.91326897 138.16134682 56.91326897 138.16134682 55.80134583 137.67662048 C54.00865891 136.88278941 54.00865891 136.88278941 52 137 C50.69424091 138.83660507 49.45777528 140.72252691 48.25 142.625 C34.55543846 163.14550236 13.74835538 176.98804042 -10.25390625 182.4921875 C-36.53364279 187.35188274 -63.06215665 182.44044248 -85.20507812 167.31103516 C-105.55177159 152.44953571 -119.68150937 129.80480409 -124 105 C-124.43890687 100.11636479 -124.52532801 95.27660378 -124.5 90.375 C-124.49355469 89.06192871 -124.48710938 87.74885742 -124.48046875 86.39599609 C-123.98303673 59.76047509 -112.7308962 38.11778622 -93.93652344 19.51635742 C-89.05796922 14.85936261 -83.93437598 11.22361164 -78 8 C-76.96746094 7.40703125 -75.93492188 6.8140625 -74.87109375 6.203125 C-52.80084563 -5.76544525 -23.67153498 -9.32238057 0 0 Z " fill="#B44090" transform="translate(124,4)"/>
<path d="M0 0 C1.03253906 0.37382813 2.06507812 0.74765625 3.12890625 1.1328125 C26.04331178 9.97080799 45.66407341 27.27835452 55.7890625 49.83984375 C64.43438465 70.25779442 66.48252295 91.19645956 61.65625 112.84765625 C60.86412739 116.11601915 60.86412739 116.11601915 61 120 C60.02265433 121.02215235 59.01927165 122.01965042 58 123 C56.7877051 125.48901793 56.7877051 125.48901793 55.8125 128.1875 C55.29623047 129.53908203 55.29623047 129.53908203 54.76953125 130.91796875 C54.51558594 131.60503906 54.26164063 132.29210937 54 133 C56.97 134.32 59.94 135.64 63 137 C63 137.99 63 138.98 63 140 C59.37 139.01 55.74 138.02 52 137 C51.51273438 137.77601563 51.02546875 138.55203125 50.5234375 139.3515625 C36.08995435 161.34294229 15.56100688 176.57236707 -10.25390625 182.4921875 C-36.53364279 187.35188274 -63.06215665 182.44044248 -85.20507812 167.31103516 C-105.55177159 152.44953571 -119.68150937 129.80480409 -124 105 C-124.43890687 100.11636479 -124.52532801 95.27660378 -124.5 90.375 C-124.49355469 89.06192871 -124.48710938 87.74885742 -124.48046875 86.39599609 C-123.98303673 59.76047509 -112.7308962 38.11778622 -93.93652344 19.51635742 C-89.05796922 14.85936261 -83.93437598 11.22361164 -78 8 C-76.96746094 7.40703125 -75.93492188 6.8140625 -74.87109375 6.203125 C-52.80084563 -5.76544525 -23.67153498 -9.32238057 0 0 Z " fill="#A06ED5" transform="translate(124,4)"/>
<path d="M0 0 C0 0.66 0 1.32 0 2 C0.9590625 2.37125 0.9590625 2.37125 1.9375 2.75 C4 4 4 4 4.75 6.125 C4.8325 6.74375 4.915 7.3625 5 8 C6.0828125 8.12375 6.0828125 8.12375 7.1875 8.25 C10.64490732 9.17197528 12.34782668 10.61304401 15 13 C15.804375 13.70125 16.60875 14.4025 17.4375 15.125 C30.44164026 29.71501102 32.99918764 47.26810306 32 66 C30.09141495 81.63638947 21.0467985 96.04204352 9.37109375 106.3125 C-5.55434769 117.78358163 -22.86755764 122.71310668 -41.51953125 120.6015625 C-59.9376276 117.63152393 -74.17066911 108.20772523 -85.4375 93.5 C-95.76784151 78.34740363 -99.14597707 61.22579709 -96 43.1875 C-91.65481723 24.95397603 -80.77541152 10.05733177 -65 0 C-44.08315404 -11.71812098 -21.01897464 -10.46811139 0 0 Z " fill="#F62786" transform="translate(219,333)"/>
<path d="M0 0 C5.875 3.625 5.875 3.625 7 7 C7.86625 7.185625 7.86625 7.185625 8.75 7.375 C12.06910681 8.29697411 13.70889648 10.51797119 16 13 C15.30132812 13.680625 14.60265625 14.36125 13.8828125 15.0625 C10.71390014 18.23363928 7.79531551 21.60095145 4.875 25 C4.30950439 25.65645508 3.74400879 26.31291016 3.16137695 26.98925781 C2.0002 28.33889634 0.84012227 29.68948139 -0.31884766 31.04101562 C-1.87904187 32.85905199 -3.44493673 34.67201749 -5.01171875 36.484375 C-10.69375766 43.09114746 -16.00313748 49.85548884 -21 57 C-23.62901288 55.47793991 -25.84365964 54.15634036 -28 52 C-28.9590625 51.8453125 -28.9590625 51.8453125 -29.9375 51.6875 C-32.95401776 50.68199408 -33.53785265 48.72491098 -35 46 C-35.66 45.34 -36.32 44.68 -37 44 C-36.25878906 43.44054687 -35.51757812 42.88109375 -34.75390625 42.3046875 C-32.08236684 40.06893112 -30.0898265 37.85376847 -27.9375 35.125 C-24.40094816 30.70724753 -20.77301304 26.39724513 -17.0625 22.125 C-13.00841671 17.43482935 -9.09066785 12.66555451 -5.3125 7.75 C-4.8904126 7.20102051 -4.4683252 6.65204102 -4.03344727 6.08642578 C-2.529388 4.1075821 -1.11418837 2.22837675 0 0 Z " fill="#B54693" transform="translate(256,290)"/>
<path d="M0 0 C5.91317004 0.41075077 10.74869792 2.31860026 16.14453125 4.67578125 C16.99552902 5.04221237 17.84652679 5.40864349 18.72331238 5.78617859 C20.51105016 6.55936119 22.29685948 7.3370165 24.08081055 8.11889648 C26.81478109 9.31349671 29.55808874 10.48446802 32.30273438 11.65429688 C34.04228067 12.41004661 35.78123484 13.16716107 37.51953125 13.92578125 C38.75072441 14.44788933 38.75072441 14.44788933 40.00679016 14.98054504 C40.76485458 15.31736801 41.52291901 15.65419098 42.30395508 16.0012207 C42.97123123 16.29132523 43.63850739 16.58142975 44.32600403 16.88032532 C46.45654172 18.30536406 47.10282681 19.62420214 48 22 C47.74802309 26.08922527 46.53906925 29.89490803 44.75 33.5625 C42.13104968 35.71378062 40.34201331 35.26931708 37 35 C34.43372625 34.12569317 32.05494806 33.20959461 29.58984375 32.11328125 C28.89991837 31.81439499 28.20999298 31.51550873 27.49916077 31.20756531 C26.04710632 30.57488921 24.59746002 29.9366604 23.15014648 29.29321289 C20.94764861 28.31699818 18.73559278 27.36555162 16.52148438 26.41601562 C15.10612777 25.79573611 13.69139213 25.17403735 12.27734375 24.55078125 C11.62201157 24.27035477 10.96667938 23.98992828 10.29148865 23.70100403 C5.99040147 21.76205993 3.23256469 19.38744746 0 16 C-3.16701423 14.66436389 -3.16701423 14.66436389 -6 14 C-5.19074658 11.85294019 -4.37750887 9.7073817 -3.5625 7.5625 C-3.11003906 6.36753906 -2.65757812 5.17257813 -2.19140625 3.94140625 C-1 1 -1 1 0 0 Z " fill="#670DB2" transform="translate(183,124)"/>
<path d="M0 0 C0.99 0.33 1.98 0.66 3 1 C3 1.99 3 2.98 3 4 C2.4225 4.226875 1.845 4.45375 1.25 4.6875 C-1.74902503 6.43693127 -3.12248473 8.05855942 -5 11 C-5.58664911 13.27636381 -6.01035511 15.55602856 -6.4375 17.8671875 C-7.22610445 20.85731271 -9.02884363 22.65925181 -11 25 C-12.62633868 29.7486055 -13.28063056 34.02364599 -13.4140625 39.02734375 C-13.45273438 40.31318359 -13.49140625 41.59902344 -13.53125 42.92382812 C-13.56269499 44.26171418 -13.59394259 45.59960489 -13.625 46.9375 C-13.66324342 48.30275756 -13.7022987 49.66799264 -13.7421875 51.03320312 C-13.83609937 54.3553354 -13.92177787 57.67746741 -14 61 C-19.2351842 51.09301182 -17.65949668 38.22659728 -15.17578125 27.69140625 C-11.95472029 17.57877299 -6.78952716 8.1474326 0 0 Z " fill="#EC5B9E" transform="translate(139,345)"/>
<path d="M0 0 C1.58206057 0.00667536 3.16410534 0.0186375 4.74609375 0.03515625 C5.55240234 0.03966797 6.35871094 0.04417969 7.18945312 0.04882812 C9.18753131 0.06065107 11.18557158 0.07858711 13.18359375 0.09765625 C-0.6863062 9.34425622 -27.24372869 6.45503329 -42.81640625 3.53515625 C-43.80640625 3.31859375 -43.80640625 3.31859375 -44.81640625 3.09765625 C-44.81640625 2.76765625 -44.81640625 2.43765625 -44.81640625 2.09765625 C-43.58506958 2.10551147 -43.58506958 2.10551147 -42.32885742 2.11352539 C-39.22941354 2.13075543 -36.12999438 2.14319667 -33.03051758 2.15258789 C-31.05092733 2.15998065 -29.07135924 2.17269899 -27.09179688 2.18554688 C-15.91837395 2.23787187 -15.91837395 2.23787187 -4.81640625 1.09765625 C-3.81640625 0.09765625 -3.81640625 0.09765625 0 0 Z " fill="#AB548F" transform="translate(362.81640625,320.90234375)"/>
<path d="M0 0 C0.33 0 0.66 0 1 0 C1.04254356 1.99954746 1.04080783 4.00041636 1 6 C0.67 6.33 0.34 6.66 0 7 C-0.15858842 9.14386657 -0.25129298 11.29266838 -0.31640625 13.44140625 C-0.35830078 14.74658203 -0.40019531 16.05175781 -0.44335938 17.39648438 C-0.48317608 18.7851533 -0.52288825 20.17382522 -0.5625 21.5625 C-0.60567989 22.95509183 -0.649294 24.34767028 -0.69335938 25.74023438 C-0.79985876 29.16004801 -0.90186923 32.57993763 -1 36 C-5.67091444 27.14803593 -4.79032133 15.62297713 -3 6 C-2.34 6 -1.68 6 -1 6 C-0.67 4.02 -0.34 2.04 0 0 Z " fill="#E56BA5" transform="translate(126,370)"/>
<path d="M0 0 C9.9 0 19.8 0 30 0 C30 0.66 30 1.32 30 2 C31.65 2 33.3 2 35 2 C35 2.33 35 2.66 35 3 C22.13 3 9.26 3 -4 3 C-2.68 2.67 -1.36 2.34 0 2 C0 1.34 0 0.68 0 0 Z " fill="#BD6EA3" transform="translate(328,78)"/>
<path d="M0 0 C0 0.33 0 0.66 0 1 C-0.99257812 1.03738281 -1.98515625 1.07476562 -3.0078125 1.11328125 C-11.33374554 1.49365383 -19.0845359 2.42539471 -27.20703125 4.37890625 C-30 5 -30 5 -33 5 C-33 5.66 -33 6.32 -33 7 C-38.45769231 10.10096154 -38.45769231 10.10096154 -41.203125 9.58984375 C-41.79609375 9.39519531 -42.3890625 9.20054687 -43 9 C-28.41739724 1.01059529 -16.32397037 -0.46103264 0 0 Z " fill="#F396C4" transform="translate(196,325)"/>
<path d="M0 0 C2.97 0.495 2.97 0.495 6 1 C2.99614299 3.47251438 0.15575167 4.87685277 -3.5 6.1875 C-4.4384375 6.53167969 -5.376875 6.87585938 -6.34375 7.23046875 C-9 8 -9 8 -13 8 C-13 7.34 -13 6.68 -13 6 C-12.01 5.67 -11.02 5.34 -10 5 C-9.1028125 3.9790625 -9.1028125 3.9790625 -8.1875 2.9375 C-6 1 -6 1 -2.75 0.75 C-1.38875 0.87375 -1.38875 0.87375 0 1 C0 0.67 0 0.34 0 0 Z " fill="#BD6BA3" transform="translate(389,313)"/>
<path d="M0 0 C5.94 0 11.88 0 18 0 C18 0.66 18 1.32 18 2 C24.27 2 30.54 2 37 2 C37 2.33 37 2.66 37 3 C11.0298471 3.41277905 11.0298471 3.41277905 0 1 C0 0.67 0 0.34 0 0 Z " fill="#D797C2" transform="translate(318,323)"/>
<path d="M0 0 C5.59753384 4.54799625 10.3143947 9.52331848 15 15 C14.67 15.66 14.34 16.32 14 17 C12.35 16.67 10.7 16.34 9 16 C9.33 15.34 9.66 14.68 10 14 C9.67 13.01 9.34 12.02 9 11 C8.01 10.67 7.02 10.34 6 10 C5.34 9.01 4.68 8.02 4 7 C1.94996045 5.80767387 1.94996045 5.80767387 0 5 C0 3.35 0 1.7 0 0 Z " fill="#BB70A3" transform="translate(427,111)"/>
<path d="M0 0 C2 3 2 3 2 6 C2.66 6 3.32 6 4 6 C4.33 7.65 4.66 9.3 5 11 C5.99 11 6.98 11 8 11 C8.268125 11.556875 8.53625 12.11375 8.8125 12.6875 C10.10122647 15.19712523 11.52926478 17.59334236 13 20 C12.01 20 11.02 20 10 20 C8.0625 17.8046875 8.0625 17.8046875 6 14.875 C5.319375 13.92367187 4.63875 12.97234375 3.9375 11.9921875 C2.03277984 9.05062371 0.36053259 6.23126491 -1 3 C-0.67 2.01 -0.34 1.02 0 0 Z " fill="#B495D7" transform="translate(10,133)"/>
<path d="M0 0 C0.66 0.33 1.32 0.66 2 1 C1.50128936 5.45673159 -0.02004362 7.57687178 -3.0625 10.8125 C-4.16271484 11.99779297 -4.16271484 11.99779297 -5.28515625 13.20703125 C-5.85105469 13.79871094 -6.41695313 14.39039063 -7 15 C-7.93423645 11.98968256 -8.04449911 11.13349732 -7 8 C-6.34 8 -5.68 8 -5 8 C-5 7.34 -5 6.68 -5 6 C-4.360625 5.7525 -3.72125 5.505 -3.0625 5.25 C-0.81258459 4.18437567 -0.81258459 4.18437567 -0.25 1.875 C-0.1675 1.25625 -0.085 0.6375 0 0 Z " fill="#BC69A0" transform="translate(439,274)"/>
<path d="M0 0 C2.64 0.33 5.28 0.66 8 1 C5.84545751 3.35716404 3.80280126 4.78966144 0.9375 6.1875 C-0.10083984 6.70376953 -0.10083984 6.70376953 -1.16015625 7.23046875 C-3 8 -3 8 -5 8 C-4.34 6.02 -3.68 4.04 -3 2 C-2.01 2.33 -1.02 2.66 0 3 C0 2.01 0 1.02 0 0 Z " fill="#BB659F" transform="translate(400,306)"/>
<path d="M0 0 C2.89909335 1.17530811 4.64253812 2.1617597 5.89453125 5.09765625 C6.37254889 6.66974634 6.81805966 8.25218048 7.2265625 9.84375 C8.08247066 12.2299182 9.09874081 13.36134567 11 15 C10.67 15.99 10.34 16.98 10 18 C0 4.1369863 0 4.1369863 0 0 Z " fill="#EB71AD" transform="translate(127,413)"/>
<path d="M0 0 C0 3.63195496 -0.95453155 4.74713911 -3 7.6875 C-3.556875 8.49574219 -4.11375 9.30398438 -4.6875 10.13671875 C-5.120625 10.75160156 -5.55375 11.36648438 -6 12 C-6.66 11.34 -7.32 10.68 -8 10 C-6.91988152 6.75964457 -5.73081744 3.94880008 -4 1 C-1.8125 0.125 -1.8125 0.125 0 0 Z " fill="#B7669E" transform="translate(449,264)"/>
<path d="M0 0 C0.33 0 0.66 0 1 0 C0.45144652 4.571279 -0.41744803 8.67435795 -2 13 C-2.66 13 -3.32 13 -4 13 C-4.33 13.99 -4.66 14.98 -5 16 C-4 8.57142857 -4 8.57142857 -3 5 C-3.99 4.67 -4.98 4.34 -6 4 C-5.38125 3.896875 -4.7625 3.79375 -4.125 3.6875 C-1.63473516 3.12474627 -1.63473516 3.12474627 0 0 Z " fill="#BC6EA2" transform="translate(228,155)"/>
<path d="M0 0 C3.36591866 1.44253657 5.51047079 3.33264727 8 6 C5.42215154 8.64752004 3.08351902 10.94432065 0 13 C-0.33 11.68 -0.66 10.36 -1 9 C-0.34 9 0.32 9 1 9 C1 8.34 1 7.68 1 7 C1.66 7 2.32 7 3 7 C1.60240095 3.45481116 1.60240095 3.45481116 0 0 Z " fill="#BF65A3" transform="translate(264,297)"/>
<path d="M0 0 C0.99 0.33 1.98 0.66 3 1 C2.979375 1.7425 2.95875 2.485 2.9375 3.25 C2.99328688 5.70462279 3.3069904 7.66109261 4 10 C-1.75 6.375 -1.75 6.375 -4 3 C-2.1875 1.4375 -2.1875 1.4375 0 0 Z " fill="#B33D8C" transform="translate(226,331)"/>
<path d="M0 0 C0.680625 0.433125 1.36125 0.86625 2.0625 1.3125 C-1.06238567 3.83644612 -4.25064387 5.70951907 -7.9375 7.3125 C-8.5975 6.9825 -9.2575 6.6525 -9.9375 6.3125 C-9.9375 4.3125 -9.9375 4.3125 -8.58203125 2.953125 C-3.58589432 -0.83925186 -3.58589432 -0.83925186 0 0 Z " fill="#EA569A" transform="translate(217.9375,442.6875)"/>
<path d="M0 0 C0.35191406 0.87785156 0.35191406 0.87785156 0.7109375 1.7734375 C2.29097233 4.50258857 4.07564896 5.78784861 6.625 7.625 C8.11801426 8.70354973 9.58649355 9.81916951 11 11 C11 11.66 11 12.32 11 13 C11.66 13 12.32 13 13 13 C12.67 13.66 12.34 14.32 12 15 C11.0925 14.195625 10.185 13.39125 9.25 12.5625 C6.81013512 10.49913931 6.81013512 10.49913931 3.8125 9.5 C2 9 2 9 0.375 6.5625 C-0.305625 5.2940625 -0.305625 5.2940625 -1 4 C-1.66 3.34 -2.32 2.68 -3 2 C-2.01 1.34 -1.02 0.68 0 0 Z " fill="#EA61AE" transform="translate(222,332)"/>
<path d="M0 0 C0.66 0.33 1.32 0.66 2 1 C1.67 1.99 1.34 2.98 1 4 C0.01 4 -0.98 4 -2 4 C-2.33 4.99 -2.66 5.98 -3 7 C-4.84765625 7.73046875 -4.84765625 7.73046875 -7.0625 8.1875 C-7.79597656 8.34605469 -8.52945312 8.50460938 -9.28515625 8.66796875 C-9.85105469 8.77753906 -10.41695313 8.88710937 -11 9 C-7.56638098 5.36440339 -4.2026393 2.63886654 0 0 Z " fill="#C077AB" transform="translate(277,96)"/>
<path d="M0 0 C0 0.33 0 0.66 0 1 C-1.21236328 1.18175781 -1.21236328 1.18175781 -2.44921875 1.3671875 C-3.51785156 1.53476562 -4.58648437 1.70234375 -5.6875 1.875 C-6.74324219 2.03742188 -7.79898438 2.19984375 -8.88671875 2.3671875 C-11.98740166 2.89966661 -11.98740166 2.89966661 -14.71875 4.09375 C-17.53474628 5.21243345 -19.13335635 4.81904104 -22 4 C-14.97120402 0.24077878 -7.84966639 -0.24919576 0 0 Z " fill="#C0A2DD" transform="translate(88,0)"/>
<path d="M0 0 C-0.15481795 2.70931419 -0.48172081 4.46584039 -2.40234375 6.4453125 C-3.89771708 7.67679642 -5.4462924 8.8429837 -7 10 C-7.66 9.67 -8.32 9.34 -9 9 C-9 8.01 -9 7.02 -9 6 C-7.35 6 -5.7 6 -4 6 C-4.33 4.68 -4.66 3.36 -5 2 C-2 0 -2 0 0 0 Z " fill="#EE519A" transform="translate(229,434)"/>
<path d="M0 0 C-0.57352893 3.87132028 -2.48704352 6.08172796 -5 9 C-5.99 8.67 -6.98 8.34 -8 8 C-7.34 8 -6.68 8 -6 8 C-6.309375 6.824375 -6.309375 6.824375 -6.625 5.625 C-6.74875 4.75875 -6.8725 3.8925 -7 3 C-4.42280223 0.42280223 -3.67620068 0 0 0 Z " fill="#B95E9A" transform="translate(241,336)"/>
<path d="M0 0 C6.41991126 0.57065878 12.01589463 2.67344909 18 5 C17.01 5.66 16.02 6.32 15 7 C15 6.34 15 5.68 15 5 C14.01 5.33 13.02 5.66 12 6 C12 5.34 12 4.68 12 4 C11.01 4.33 10.02 4.66 9 5 C6.73828125 4.44140625 6.73828125 4.44140625 4.3125 3.5625 C3.50425781 3.27503906 2.69601563 2.98757812 1.86328125 2.69140625 C1.24839844 2.46324219 0.63351563 2.23507812 0 2 C0 1.34 0 0.68 0 0 Z " fill="#BD9FDC" transform="translate(114,2)"/>
<path d="M0 0 C1.0725 0.2475 2.145 0.495 3.25 0.75 C3.25 1.41 3.25 2.07 3.25 2.75 C1.98160474 3.25615298 0.71016898 3.75469099 -0.5625 4.25 C-1.62404297 4.66765625 -1.62404297 4.66765625 -2.70703125 5.09375 C-4.75 5.75 -4.75 5.75 -7.75 5.75 C-7.75 3.75 -7.75 3.75 -6.1875 1.5625 C-3.75 -0.25 -3.75 -0.25 0 0 Z " fill="#B48DD7" transform="translate(127.75,178.25)"/>
<path d="M0 0 C-0.33 0.99 -0.66 1.98 -1 3 C-1.99 3 -2.98 3 -4 3 C-4.226875 3.61875 -4.45375 4.2375 -4.6875 4.875 C-6.40748917 7.65974437 -7.94115029 7.98038343 -11 9 C-12.34050052 9.65213539 -13.67661368 10.31379969 -15 11 C-11.98347183 6.54078445 -5.81108308 0 0 0 Z " fill="#C0A2DB" transform="translate(46,13)"/>
<path d="M0 0 C1.31538327 4.15771494 0.34433068 6.8879297 -1 11 C-1.99 10.67 -2.98 10.34 -4 10 C-4.33 11.32 -4.66 12.64 -5 14 C-5.33 13.34 -5.66 12.68 -6 12 C-4.78515625 9.1796875 -4.78515625 9.1796875 -3.0625 5.875 C-2.49660156 4.77929688 -1.93070313 3.68359375 -1.34765625 2.5546875 C-0.90292969 1.71164063 -0.45820313 0.86859375 0 0 Z " fill="#BA99DA" transform="translate(12,46)"/>
<path d="M0 0 C1.9296875 0.34765625 1.9296875 0.34765625 4 1 C5.125 3.4375 5.125 3.4375 6 6 C6.66 6.66 7.32 7.32 8 8 C8.125 10.625 8.125 10.625 8 13 C5.27324841 10.59310197 3.88033404 8.07528977 2.3125 4.8125 C1.65701172 3.46091797 1.65701172 3.46091797 0.98828125 2.08203125 C0.66214844 1.39496094 0.33601562 0.70789063 0 0 Z " fill="#C47AAD" transform="translate(231,256)"/>
<path d="M0 0 C1.65 0 3.3 0 5 0 C5.33 0.99 5.66 1.98 6 3 C6.66 3.33 7.32 3.66 8 4 C8.66 4.33 9.32 4.66 10 5 C10.33 5.99 10.66 6.98 11 8 C6.40378078 6.5129879 3.53027653 4.20187872 0 1 C0 0.67 0 0.34 0 0 Z " fill="#B697D9" transform="translate(34,166)"/>
<path d="M0 0 C0.86625 0.3403125 0.86625 0.3403125 1.75 0.6875 C0.61525052 4.09174844 -0.21811304 4.90403709 -3.25 6.6875 C-4.24 6.3575 -5.23 6.0275 -6.25 5.6875 C-6.25 4.6975 -6.25 3.7075 -6.25 2.6875 C-4.08146295 0.51896295 -3.10906228 -0.43181421 0 0 Z " fill="#AF89D5" transform="translate(152.25,164.3125)"/>
<path d="M0 0 C5.06998019 0.65419099 9.41990777 2.8546409 14 5 C13.01 5.66 12.02 6.32 11 7 C11 6.34 11 5.68 11 5 C10.37351563 4.97421875 9.74703125 4.9484375 9.1015625 4.921875 C7.87566406 4.83679688 7.87566406 4.83679688 6.625 4.75 C5.81289062 4.70359375 5.00078125 4.6571875 4.1640625 4.609375 C2 4 2 4 0.7109375 1.953125 C0.47632813 1.30859375 0.24171875 0.6640625 0 0 Z " fill="#955DC2" transform="translate(192,127)"/>
<path d="M0 0 C0.66 0 1.32 0 2 0 C2.86772029 2.07772471 3.71873619 4.16243177 4.5625 6.25 C5.03816406 7.41015625 5.51382813 8.5703125 6.00390625 9.765625 C6.95770524 12.86266644 7.20983356 14.07321701 6 17 C5.73445312 16.32453125 5.46890625 15.6490625 5.1953125 14.953125 C4.84210938 14.06109375 4.48890625 13.1690625 4.125 12.25 C3.77695313 11.36828125 3.42890625 10.4865625 3.0703125 9.578125 C2.06284557 7.0384159 2.06284557 7.0384159 0.8671875 4.859375 C0 3 0 3 0 0 Z " fill="#EB7DB3" transform="translate(243,361)"/>
<path d="M0 0 C0.99 0.33 1.98 0.66 3 1 C3 1.99 3 2.98 3 4 C2.1646875 4.3403125 2.1646875 4.3403125 1.3125 4.6875 C-1.63246684 6.35896766 -3.68156544 8.55276352 -6 11 C-6 7.39426104 -5.18292538 6.58663434 -3 3.8125 C-2.443125 3.09707031 -1.88625 2.38164062 -1.3125 1.64453125 C-0.879375 1.10183594 -0.44625 0.55914062 0 0 Z " fill="#EC61A1" transform="translate(139,345)"/>
<path d="M0 0 C1 2 1 2 0.3125 4.375 C-1.09398311 7.18796623 -2.67557877 8.9080209 -5 11 C-5.66 10.67 -6.32 10.34 -7 10 C-5.33248852 6.05860922 -2.77289351 3.2107188 0 0 Z " fill="#C06EA6" transform="translate(248,301)"/>
<path d="M0 0 C0.66 0 1.32 0 2 0 C0.5129879 4.59621922 -1.79812128 7.46972347 -5 11 C-5.33 11 -5.66 11 -6 11 C-6 9.02 -6 7.04 -6 5 C-4.68 5 -3.36 5 -2 5 C-2 4.01 -2 3.02 -2 2 C-1.34 2 -0.68 2 0 2 C0 1.34 0 0.68 0 0 Z " fill="#BD72A5" transform="translate(257,315)"/>
<path d="M0 0 C-1.65 0.33 -3.3 0.66 -5 1 C-5 1.66 -5 2.32 -5 3 C-10.45769231 6.10096154 -10.45769231 6.10096154 -13.203125 5.58984375 C-13.79609375 5.39519531 -14.3890625 5.20054687 -15 5 C-13.06891037 3.96709159 -11.129882 2.94901328 -9.1875 1.9375 C-8.10855469 1.36902344 -7.02960938 0.80054688 -5.91796875 0.21484375 C-3 -1 -3 -1 0 0 Z " fill="#EC85B8" transform="translate(168,329)"/>
<path d="M0 0 C0 3.5094654 -0.5925541 5.7829808 -2 9 C-4.625 10.875 -4.625 10.875 -7 12 C-5.44298069 7.32894208 -2.91552627 3.91294315 0 0 Z " fill="#C57CAD" transform="translate(242,129)"/>
<path d="M0 0 C3.79303725 1.00193437 6.71536341 1.81024227 10 4 C10 4.66 10 5.32 10 6 C8.5164999 5.57742724 7.03823576 5.13643678 5.5625 4.6875 C4.73878906 4.44386719 3.91507813 4.20023438 3.06640625 3.94921875 C2.04353516 3.47935547 2.04353516 3.47935547 1 3 C0.67 2.01 0.34 1.02 0 0 Z " fill="#8953B9" transform="translate(177,138)"/>
<path d="M0 0 C3.82097239 0.53069061 6.06171403 1.49701566 9 4 C7.02 4.99 5.04 5.98 3 7 C2.87625 6.030625 2.7525 5.06125 2.625 4.0625 C2.41875 3.051875 2.2125 2.04125 2 1 C1.34 0.67 0.68 0.34 0 0 Z " fill="#8A4BC3" transform="translate(206,133)"/>
<path d="M0 0 C4.96916636 0.51405169 9.29026351 1.23384882 14 3 C14 3.33 14 3.66 14 4 C6.57142857 4.14285714 6.57142857 4.14285714 3 3 C3 2.34 3 1.68 3 1 C2.01 0.67 1.02 0.34 0 0 Z " fill="#CF8FBA" transform="translate(370,81)"/>
<path d="M0 0 C4.12751449 0.60698743 7.3321148 2.03810791 11 4 C7.67465243 5.10844919 5.37817425 4.84454356 2 4 C2 3.34 2 2.68 2 2 C1.34 2 0.68 2 0 2 C0 1.34 0 0.68 0 0 Z " fill="#E867A5" transform="translate(208,329)"/>
<path d="M0 0 C0.33 0.99 0.66 1.98 1 3 C1.99 3.33 2.98 3.66 4 4 C1.6875 6.0625 1.6875 6.0625 -1 8 C-1.99 7.67 -2.98 7.34 -4 7 C-3.67 6.34 -3.34 5.68 -3 5 C-2.34 5 -1.68 5 -1 5 C-0.67 3.35 -0.34 1.7 0 0 Z " fill="#BD69A5" transform="translate(417,295)"/>
<path d="M0 0 C0.66 0.33 1.32 0.66 2 1 C0.68 1.33 -0.64 1.66 -2 2 C-2 2.66 -2 3.32 -2 4 C-3.32 4 -4.64 4 -6 4 C-6 4.66 -6 5.32 -6 6 C-6.99 6.33 -7.98 6.66 -9 7 C-9.66 6.34 -10.32 5.68 -11 5 C-9.21289414 4.13633178 -7.4201535 3.28431406 -5.625 2.4375 C-4.62726563 1.96183594 -3.62953125 1.48617187 -2.6015625 0.99609375 C-1.74304688 0.66738281 -0.88453125 0.33867188 0 0 Z " fill="#CC87B5" transform="translate(297,86)"/>
<path d="M0 0 C0.33 0.66 0.66 1.32 1 2 C-0.4726862 5.27263601 -1.42695432 6.72014048 -4.6875 8.3125 C-5.450625 8.539375 -6.21375 8.76625 -7 9 C-5.44499019 5.18315774 -2.96404505 2.80804268 0 0 Z " fill="#B594DA" transform="translate(27,27)"/>
<path d="M0 0 C1.31611677 0.95336021 2.62778961 1.91285774 3.9375 2.875 C4.66839844 3.40867187 5.39929688 3.94234375 6.15234375 4.4921875 C8 6 8 6 9 8 C6.03 7.505 6.03 7.505 3 7 C3 6.01 3 5.02 3 4 C2.01 3.67 1.02 3.34 0 3 C0 2.01 0 1.02 0 0 Z " fill="#BDA0DA" transform="translate(150,18)"/>
<path d="M0 0 C1.65 0 3.3 0 5 0 C5 0.66 5 1.32 5 2 C6.32 2.33 7.64 2.66 9 3 C4.94568308 4.15837626 2.78187881 3.83691257 -1 2 C-0.67 1.34 -0.34 0.68 0 0 Z " fill="#E664A0" transform="translate(162,447)"/>
<path d="M0 0 C3.63 0 7.26 0 11 0 C7.96474514 2.02350324 6.80573798 2.32124018 3.3125 2.625 C2.50425781 2.69976562 1.69601562 2.77453125 0.86328125 2.8515625 C0.24839844 2.90054687 -0.36648438 2.94953125 -1 3 C-0.67 2.01 -0.34 1.02 0 0 Z " fill="#CB87B7" transform="translate(365,321)"/>
<path d="M0 0 C1.32 0.99 2.64 1.98 4 3 C2.68 3 1.36 3 0 3 C0 4.65 0 6.3 0 8 C-1.65 8.33 -3.3 8.66 -5 9 C-3.50163895 5.88801935 -1.80066242 2.9465385 0 0 Z " fill="#CB85B7" transform="translate(256,290)"/>
<path d="M0 0 C0.99 0 1.98 0 3 0 C3.33 1.98 3.66 3.96 4 6 C3.01 6 2.02 6 1 6 C0.34 5.01 -0.32 4.02 -1 3 C-0.67 2.01 -0.34 1.02 0 0 Z " fill="#BE589B" transform="translate(245,274)"/>
<path d="M0 0 C4.10958767 1.45044271 7.43258745 3.51110752 11 6 C10.01 6.495 10.01 6.495 9 7 C8.01 6.67 7.02 6.34 6 6 C6 5.34 6 4.68 6 4 C4.35 3.67 2.7 3.34 1 3 C0.67 2.01 0.34 1.02 0 0 Z " fill="#C0A7DE" transform="translate(138,11)"/>
<path d="M0 0 C3.3 0 6.6 0 10 0 C10 0.99 10 1.98 10 3 C3.375 2.25 3.375 2.25 0 0 Z " fill="#B694D9" transform="translate(62,182)"/>
<path d="M0 0 C0.66 0.99 1.32 1.98 2 3 C1.01 3.495 1.01 3.495 0 4 C-1.13350534 6.01669827 -1.13350534 6.01669827 -2 8 C-5 4.25 -5 4.25 -5 2 C-3.68 2 -2.36 2 -1 2 C-0.67 1.34 -0.34 0.68 0 0 Z " fill="#AB62BF" transform="translate(234,141)"/>
<path d="M0 0 C1.258125 0.12375 2.51625 0.2475 3.8125 0.375 C4.87404297 0.47941406 4.87404297 0.47941406 5.95703125 0.5859375 C8 1 8 1 11 3 C3.57142857 3.14285714 3.57142857 3.14285714 0 2 C0 1.34 0 0.68 0 0 Z " fill="#EA7BB1" transform="translate(197,326)"/>
<path d="M0 0 C0.66 0 1.32 0 2 0 C0.73058503 3.91402949 -0.51167694 5.79072873 -4 8 C-3.40312566 4.65750371 -2.26396123 2.53563658 0 0 Z " fill="#B597D4" transform="translate(167,149)"/>
<path d="M0 0 C2.51471866 2.51471866 3.15955106 4.56816682 4 8 C3.01 9.485 3.01 9.485 2 11 C0.19769832 7.17010894 -0.19622241 4.21878192 0 0 Z " fill="#C47CAC" transform="translate(226,240)"/>
<path d="M0 0 C0.33 0 0.66 0 1 0 C1.25 2.3125 1.25 2.3125 1 5 C-1 6.8125 -1 6.8125 -3 8 C-3 7.01 -3 6.02 -3 5 C-3.99 4.67 -4.98 4.34 -6 4 C-5.38125 3.896875 -4.7625 3.79375 -4.125 3.6875 C-1.63473516 3.12474627 -1.63473516 3.12474627 0 0 Z " fill="#BA67C0" transform="translate(228,155)"/>
<path d="M0 0 C0.99 0.33 1.98 0.66 3 1 C4.1875 4.0625 4.1875 4.0625 5 7 C2.525 6.01 2.525 6.01 0 5 C0 3.35 0 1.7 0 0 Z " fill="#C27AAE" transform="translate(451,144)"/>
<path d="M0 0 C2.5 2.3125 2.5 2.3125 5 5 C5 5.99 5 6.98 5 8 C3.35 7.67 1.7 7.34 0 7 C0.33 6.34 0.66 5.68 1 5 C0.72057545 3.32345271 0.39171753 1.65391846 0 0 Z " fill="#C67EB0" transform="translate(436,120)"/>
<path d="M0 0 C1.32 0.33 2.64 0.66 4 1 C2.35 2.65 0.7 4.3 -1 6 C-1.66 5.67 -2.32 5.34 -3 5 C-2.01 3.35 -1.02 1.7 0 0 Z " fill="#A27CD2" transform="translate(30,24)"/>
<path d="M0 0 C1.32 0 2.64 0 4 0 C2.84826645 2.46800047 1.95216435 4.04783565 0 6 C-0.38218767 4.34385343 -0.71395102 2.67542976 -1 1 C-0.67 0.67 -0.34 0.34 0 0 Z " fill="#EB5398" transform="translate(233,428)"/>
<path d="M0 0 C0.99 0.33 1.98 0.66 3 1 C2.49396008 3.16874252 2.00016187 4.99967627 1 7 C0.01 6.67 -0.98 6.34 -2 6 C-1.34 4.02 -0.68 2.04 0 0 Z " fill="#E75095" transform="translate(131,356)"/>
<path d="M0 0 C0 3 0 3 -1.5 4.6875 C-1.995 5.120625 -2.49 5.55375 -3 6 C-3 5.34 -3 4.68 -3 4 C-3.66 4 -4.32 4 -5 4 C-4.67 3.01 -4.34 2.02 -4 1 C-1.9375 0.3125 -1.9375 0.3125 0 0 Z " fill="#C273A8" transform="translate(449,264)"/>
<path d="M0 0 C1.32 0.66 2.64 1.32 4 2 C2.625 4 2.625 4 1 6 C0.34 6 -0.32 6 -1 6 C-0.67 4.02 -0.34 2.04 0 0 Z " fill="#AB3BA2" transform="translate(230,149)"/>
<path d="M0 0 C0.99 0.33 1.98 0.66 3 1 C2.42415568 3.38564077 1.77772405 5.66682784 1 8 C0.34 8 -0.32 8 -1 8 C-0.67 5.36 -0.34 2.72 0 0 Z " fill="#B797D9" transform="translate(2,70)"/>
</svg>
